<?xml version="1.0" encoding="UTF-8"?><svg xmlns="http://www.w3.org/2000/svg" xmlns:xlink="http://www.w3.org/1999/xlink" height="169.5" preserveAspectRatio="xMidYMid meet" version="1.0" viewBox="0.0 0.0 499.9 169.5" width="499.9" zoomAndPan="magnify"><defs><clipPath id="a"><path d="M 0 0 L 499.898438 0 L 499.898438 169.480469 L 0 169.480469 Z M 0 0"/></clipPath><clipPath id="b"><path d="M 1 0 L 499.898438 0 L 499.898438 169.480469 L 1 169.480469 Z M 1 0"/></clipPath></defs><g><g clip-path="url(#a)" id="change1_1"><path d="M 497.980469 88.019531 C 488.574219 110.410156 478.722656 119.816406 476.035156 133.25 C 473.351562 146.683594 470.664062 169.074219 457.230469 169.074219 C 450.5 169.074219 343.925781 169.074219 239.195312 169.074219 C 237.03125 161.402344 233.535156 150.769531 230.542969 146.851562 C 226.441406 141.488281 219.8125 141.171875 211.292969 146.851562 C 206.015625 150.375 202.675781 161.285156 200.898438 169.074219 C 111.105469 169.074219 32.257812 169.074219 32.257812 169.074219 C 32.257812 169.074219 30.914062 145.339844 24.648438 142.207031 C 18.378906 139.070312 1.359375 139.65625 0.015625 121.453125 C -1.324219 103.246094 75.25 36.972656 218.546875 10.101562 C 361.847656 -16.765625 449.617188 23.089844 464.839844 32.941406 C 480.066406 42.792969 507.382812 65.632812 497.980469 88.019531" fill="#EAA12F"/></g><g id="change2_1"><path d="M 310.597656 7.152344 C 310.597656 7.152344 370.820312 5.695312 424.503906 21.414062 C 478.1875 37.132812 482.6875 55.308594 478.671875 56.25 C 474.648438 57.191406 451.429688 35.207031 401.714844 28.464844 C 352 21.71875 283.859375 12.734375 310.597656 7.152344" fill="#F0B85A"/></g><g clip-path="url(#b)" id="change3_1"><path d="M 499.800781 80.785156 C 499.578125 83.191406 498.992188 85.609375 497.980469 88.019531 C 492.324219 101.488281 486.507812 110.253906 482.183594 118.027344 C 477.238281 117.140625 469.695312 116.191406 460.070312 115.261719 C 459.566406 116.335938 459.0625 117.417969 458.554688 118.5 C 448.5625 139.839844 438.230469 161.90625 439.15625 168.945312 L 437.175781 169.207031 C 436.171875 161.585938 446.164062 140.246094 456.742188 117.652344 C 457.148438 116.785156 457.550781 115.925781 457.953125 115.0625 C 452.539062 114.558594 446.511719 114.058594 439.964844 113.578125 C 425.84375 153.628906 423.335938 166.082031 422.890625 169.214844 L 420.910156 168.933594 C 421.355469 165.773438 423.871094 153.265625 437.894531 113.429688 C 431.695312 112.988281 425.042969 112.5625 418.011719 112.167969 C 416.660156 116.792969 415.339844 121.285156 414.066406 125.59375 C 407.902344 146.5 403.03125 163.015625 402.714844 169.125 L 400.714844 169.023438 C 401.046875 162.675781 405.703125 146.882812 412.148438 125.027344 C 413.378906 120.859375 414.65625 116.519531 415.964844 112.054688 C 410.003906 111.726562 403.789062 111.421875 397.34375 111.140625 C 395.507812 116.003906 393.667969 120.679688 391.894531 125.171875 C 384.613281 143.65625 378.863281 158.253906 380.335938 168.9375 L 378.355469 169.210938 C 376.808594 158.007812 382.644531 143.195312 390.035156 124.441406 C 391.726562 120.152344 393.480469 115.679688 395.230469 111.054688 C 387.121094 110.710938 378.675781 110.414062 369.964844 110.171875 C 362.160156 134.636719 355.386719 158.265625 356.335938 168.988281 L 354.34375 169.164062 C 353.371094 158.1875 360.09375 134.582031 367.886719 110.117188 C 361.707031 109.953125 355.40625 109.8125 348.996094 109.707031 C 348.039062 113.269531 347.082031 116.804688 346.140625 120.28125 C 340.226562 142.128906 335.117188 160.992188 334.269531 169.179688 L 332.277344 168.972656 C 333.144531 160.628906 338.273438 141.6875 344.210938 119.757812 C 345.109375 116.441406 346.019531 113.074219 346.933594 109.675781 C 339.792969 109.566406 332.535156 109.5 325.191406 109.476562 C 321.664062 126.804688 317.984375 142.019531 315.269531 153.226562 C 313.523438 160.433594 312.144531 166.125 311.585938 169.25 L 309.613281 168.898438 C 310.1875 165.710938 311.503906 160.277344 313.324219 152.757812 C 316.011719 141.652344 319.65625 126.605469 323.148438 109.472656 C 315.164062 109.457031 307.089844 109.496094 298.96875 109.597656 C 297.769531 140.875 296.882812 168.667969 296.867188 169.105469 L 294.871094 169.042969 C 294.882812 168.605469 295.769531 140.863281 296.964844 109.621094 C 289.285156 109.726562 281.570312 109.886719 273.855469 110.113281 C 274.117188 118.8125 274.421875 125.667969 275.035156 129.765625 C 276.652344 140.550781 280.992188 168.640625 281.035156 168.921875 L 279.058594 169.226562 C 279.015625 168.945312 274.675781 140.851562 273.054688 130.0625 C 272.425781 125.867188 272.121094 118.941406 271.859375 110.167969 C 264.859375 110.382812 257.871094 110.648438 250.914062 110.96875 C 254.15625 119.847656 257.582031 126.519531 261.179688 130.917969 C 271.105469 143.046875 271.75 167.996094 271.773438 169.054688 L 269.773438 169.097656 C 269.765625 168.84375 269.117188 143.777344 259.632812 132.183594 C 255.832031 127.539062 252.230469 120.476562 248.839844 111.0625 C 242.234375 111.378906 235.671875 111.746094 229.164062 112.167969 C 231.476562 114.800781 233.769531 117.292969 235.960938 119.679688 C 243.683594 128.078125 249.78125 134.714844 250.9375 141.195312 C 253.722656 156.855469 255.378906 168.820312 255.394531 168.9375 L 253.414062 169.210938 C 253.398438 169.09375 251.746094 157.167969 248.96875 141.546875 C 247.914062 135.640625 241.988281 129.195312 234.488281 121.03125 C 232.027344 118.355469 229.371094 115.46875 226.664062 112.332031 C 216.414062 113.023438 206.324219 113.847656 196.507812 114.828125 C 199.136719 118.402344 201.679688 121.671875 204.003906 124.652344 C 210.125 132.511719 214.960938 138.714844 216.546875 144.140625 L 214.628906 144.703125 C 213.148438 139.644531 208.414062 133.570312 202.425781 125.882812 C 199.890625 122.628906 197.089844 119.027344 194.203125 115.066406 C 189.789062 115.523438 185.425781 116.007812 181.132812 116.527344 C 183.980469 119.003906 186.804688 121.414062 189.527344 123.738281 C 201.097656 133.617188 210.234375 141.417969 212.226562 146.488281 L 210.363281 147.21875 C 208.554688 142.617188 199.136719 134.574219 188.226562 125.261719 C 185.070312 122.566406 181.78125 119.753906 178.46875 116.855469 C 175.457031 117.234375 172.472656 117.625 169.53125 118.035156 C 165.59375 118.585938 161.761719 119.132812 157.996094 119.683594 C 162.222656 122.628906 166.390625 125.429688 170.28125 128.039062 C 181.964844 135.882812 191.191406 142.078125 193.503906 146.378906 C 199.632812 157.8125 201.789062 168.433594 201.878906 168.878906 L 199.917969 169.269531 C 199.894531 169.164062 197.722656 158.480469 191.738281 147.324219 C 189.664062 143.460938 180.164062 137.082031 169.167969 129.699219 C 164.734375 126.722656 159.941406 123.507812 155.113281 120.101562 C 147.886719 121.167969 140.992188 122.222656 134.394531 123.273438 C 144.109375 131.425781 152.6875 139.171875 155.492188 146.496094 C 162.480469 164.738281 164.1875 168.632812 164.203125 168.667969 L 162.375 169.480469 C 162.308594 169.328125 160.648438 165.546875 153.625 147.210938 C 150.867188 140.011719 141.824219 132.078125 131.777344 123.691406 C 121.449219 125.347656 111.894531 126.980469 103.039062 128.570312 C 105.585938 131.609375 108.152344 134.585938 110.632812 137.464844 C 121.523438 150.101562 130.925781 161.015625 132.089844 168.929688 L 130.109375 169.21875 C 129.03125 161.882812 119.359375 150.65625 109.117188 138.773438 C 106.394531 135.609375 103.570312 132.328125 100.777344 128.976562 C 89.351562 131.046875 79.117188 133.039062 69.949219 134.917969 C 70.222656 135.214844 70.496094 135.515625 70.769531 135.8125 C 80.859375 146.789062 91.292969 158.144531 93.878906 168.839844 L 91.933594 169.308594 C 89.472656 159.117188 79.214844 147.957031 69.296875 137.164062 C 68.753906 136.574219 68.207031 135.980469 67.664062 135.386719 C 50.617188 138.910156 37.339844 142.011719 26.871094 144.421875 C 26.210938 143.394531 25.472656 142.617188 24.648438 142.207031 C 19.105469 139.4375 5.183594 139.5625 1.089844 127.074219 C 8.5 121.578125 24.035156 113 45.992188 103.640625 C 40.617188 84.347656 47.488281 72.523438 50.621094 70.554688 L 51.6875 72.25 C 50.253906 73.152344 42.496094 83.378906 47.851562 102.851562 C 56.777344 99.089844 66.722656 95.214844 77.585938 91.371094 C 71.046875 70.871094 76.957031 56.546875 77.253906 55.855469 L 79.09375 56.640625 C 79.023438 56.804688 73.253906 70.867188 79.488281 90.699219 C 84.886719 88.808594 90.503906 86.929688 96.328125 85.074219 C 95.859375 83.8125 95.476562 82.539062 95.203125 81.257812 C 89.671875 55.511719 105.847656 42.335938 108.476562 41.238281 L 109.246094 43.085938 C 106.9375 44.046875 91.992188 56.78125 97.160156 80.835938 C 97.417969 82.054688 97.785156 83.265625 98.234375 84.472656 C 104.175781 82.601562 110.324219 80.761719 116.671875 78.972656 C 116.667969 78.960938 116.664062 78.949219 116.660156 78.9375 C 109.671875 50.347656 132.046875 32.335938 132.269531 32.15625 L 133.507812 33.726562 C 133.292969 33.898438 111.941406 51.132812 118.597656 78.433594 C 126.0625 76.351562 133.789062 74.335938 141.765625 72.421875 C 132.632812 43.339844 154.875 24.832031 155.101562 24.648438 L 156.363281 26.199219 C 156.148438 26.375 134.917969 44.089844 143.691406 71.886719 C 143.699219 71.910156 143.710938 71.933594 143.714844 71.957031 C 152.226562 69.941406 161.011719 68.035156 170.042969 66.277344 C 163.515625 35.246094 182.894531 17.132812 183.113281 16.933594 L 184.460938 18.414062 C 184.253906 18.601562 165.710938 35.996094 172.007812 65.898438 C 181.277344 64.125 190.800781 62.507812 200.558594 61.082031 C 193.992188 23.933594 212.078125 9.996094 212.890625 9.398438 L 214.082031 11.003906 C 213.894531 11.144531 196.21875 24.867188 202.542969 60.796875 C 213.339844 59.257812 224.421875 57.953125 235.738281 56.941406 C 235.398438 54.980469 235.0625 52.992188 234.734375 50.964844 C 228.25 11.269531 234.101562 6.734375 235.339844 6.226562 L 235.71875 7.152344 L 236.179688 8.039062 C 236.121094 8.078125 230.4375 12.246094 236.707031 50.640625 C 237.046875 52.722656 237.390625 54.753906 237.738281 56.761719 C 247.851562 55.886719 258.152344 55.246094 268.621094 54.871094 C 268.90625 54.859375 269.183594 54.851562 269.46875 54.839844 C 266.90625 26.988281 258.890625 4.53125 258.808594 4.300781 L 260.6875 3.621094 C 260.773438 3.855469 268.898438 26.605469 271.46875 54.769531 C 281.171875 54.433594 290.453125 54.152344 299.328125 53.929688 C 300.375 13.882812 279.816406 3.136719 279.601562 3.027344 L 280.488281 1.234375 C 281.40625 1.6875 302.402344 12.550781 301.335938 53.878906 C 312.15625 53.613281 322.359375 53.4375 332.007812 53.339844 C 335.007812 10.109375 310.5625 1.992188 310.304688 1.914062 L 310.894531 0.00390625 C 311.191406 0.09375 318.238281 2.355469 324.570312 10.921875 C 329.855469 18.074219 335.515625 31.097656 334.011719 53.320312 C 343.4375 53.234375 352.324219 53.226562 360.6875 53.289062 C 361.464844 49.183594 362.097656 45.367188 362.53125 41.945312 C 366.730469 8.878906 337.441406 2.613281 337.144531 2.554688 L 337.539062 0.59375 C 337.851562 0.65625 368.945312 7.304688 364.515625 42.199219 C 364.089844 45.558594 363.472656 49.292969 362.71875 53.304688 C 370.914062 53.378906 378.601562 53.527344 385.828125 53.742188 C 388.011719 45.972656 389.355469 39.894531 389.257812 36.644531 C 388.765625 20.058594 369.117188 5.484375 368.921875 5.339844 L 370.101562 3.722656 C 370.945312 4.339844 390.734375 19.015625 391.257812 36.585938 C 391.359375 40 390.0625 46.03125 387.894531 53.808594 C 395.910156 54.0625 403.347656 54.402344 410.238281 54.816406 C 412.71875 24.855469 401.03125 11.019531 400.890625 10.859375 L 402.394531 9.542969 C 402.992188 10.222656 414.890625 24.222656 412.265625 54.945312 C 418.550781 55.347656 424.394531 55.8125 429.800781 56.34375 C 432.347656 26.898438 418.617188 15.519531 418.453125 15.386719 L 419.691406 13.816406 C 420.410156 14.382812 434.601562 26.03125 431.832031 56.550781 C 439.917969 57.382812 447.042969 58.355469 453.320312 59.457031 C 454.480469 32.914062 439.652344 22.371094 439.457031 22.238281 L 440.585938 20.589844 C 440.863281 20.777344 447.402344 25.335938 451.734375 36.054688 C 453.96875 41.589844 455.816406 49.433594 455.308594 59.816406 C 463.046875 61.246094 469.464844 62.875 474.832031 64.667969 C 473.417969 48.984375 464.105469 33.652344 463.988281 33.464844 L 465.691406 32.417969 C 466.183594 33.214844 475.789062 49.042969 476.910156 65.390625 C 489.046875 69.769531 495.449219 75.054688 499.800781 80.785156" fill="#C98A28"/></g></g></svg>